<svg width="230" height="59" viewBox="0 0 230 59" fill="none" xmlns="http://www.w3.org/2000/svg">
<g clip-path="url(#clip0_48_107)">
<mask id="mask0_48_107" style="mask-type:luminance" maskUnits="userSpaceOnUse" x="0" y="0" width="230" height="59">
<path d="M230 0H0V59H230V0Z" fill="white"/>
</mask>
<g mask="url(#mask0_48_107)">
<path d="M55 10H30V39H55V10Z" fill="#FF0000"/>
<path d="M25.2841 9.90908V39H21.7614V13.0341H7.10225V39H3.57953V9.90908H25.2841ZM59.4212 39V9.90908H62.9439V22.8636H78.4553V9.90908H81.978V39H78.4553V25.9886H62.9439V39H59.4212ZM113.576 24.4545C113.576 27.5227 113.022 30.1742 111.914 32.4091C110.806 34.6439 109.286 36.3674 107.354 37.5795C105.423 38.7917 103.216 39.3977 100.735 39.3977C98.254 39.3977 96.0476 38.7917 94.1158 37.5795C92.1839 36.3674 90.6641 34.6439 89.5561 32.4091C88.4482 30.1742 87.8942 27.5227 87.8942 24.4545C87.8942 21.3864 88.4482 18.7348 89.5561 16.5C90.6641 14.2652 92.1839 12.5417 94.1158 11.3295C96.0476 10.1174 98.254 9.51135 100.735 9.51135C103.216 9.51135 105.423 10.1174 107.354 11.3295C109.286 12.5417 110.806 14.2652 111.914 16.5C113.022 18.7348 113.576 21.3864 113.576 24.4545ZM110.167 24.4545C110.167 21.9356 109.746 19.8097 108.903 18.0767C108.069 16.3438 106.938 15.0322 105.508 14.142C104.087 13.2519 102.496 12.8068 100.735 12.8068C98.9737 12.8068 97.3781 13.2519 95.9482 14.142C94.5277 15.0322 93.3961 16.3438 92.5533 18.0767C91.7199 19.8097 91.3033 21.9356 91.3033 24.4545C91.3033 26.9735 91.7199 29.0994 92.5533 30.8324C93.3961 32.5653 94.5277 33.8769 95.9482 34.767C97.3781 35.6572 98.9737 36.1023 100.735 36.1023C102.496 36.1023 104.087 35.6572 105.508 34.767C106.938 33.8769 108.069 32.5653 108.903 30.8324C109.746 29.0994 110.167 26.9735 110.167 24.4545ZM119.499 39V9.90908H129.329C131.611 9.90908 133.477 10.321 134.925 11.1449C136.384 11.9593 137.463 13.0625 138.164 14.4545C138.865 15.8466 139.215 17.3996 139.215 19.1136C139.215 20.8277 138.865 22.3854 138.164 23.7869C137.473 25.1884 136.403 26.3059 134.954 27.1392C133.505 27.9631 131.649 28.375 129.386 28.375H122.34V25.25H129.272C130.835 25.25 132.089 24.9801 133.036 24.4403C133.983 23.9006 134.67 23.1714 135.096 22.2528C135.531 21.3248 135.749 20.2784 135.749 19.1136C135.749 17.9489 135.531 16.9072 135.096 15.9886C134.67 15.0701 133.978 14.3504 133.022 13.8295C132.066 13.2992 130.797 13.0341 129.215 13.0341H123.022V39H119.499ZM143.114 39H139.421L150.103 9.90908H153.739L164.421 39H160.728L152.035 14.5114H151.808L143.114 39ZM144.478 27.6364H159.364V30.7614H144.478V27.6364ZM168.952 9.90908H173.157L183.043 34.0568H183.384L193.271 9.90908H197.475V39H194.18V16.8977H193.896L184.805 39H181.623L172.532 16.8977H172.248V39H168.952V9.90908ZM205.732 39H202.038L212.72 9.90908H216.357L227.038 39H223.345L214.652 14.5114H214.425L205.732 39ZM207.095 27.6364H221.982V30.7614H207.095V27.6364Z" fill="#5A5A5A"/>
<path d="M33.5831 39H29.8899L40.5717 9.90909H44.2081L54.8899 39H51.1967L42.5036 14.5114H42.2763L33.5831 39ZM34.9467 27.6364H49.8331V30.7614H34.9467V27.6364Z" fill="white"/>
<path d="M2.38068 55V45.1818H10.1023V55H8.59375V46.5881H3.8892V55H2.38068ZM12.8572 58.6818V45.1818H14.3146V46.7415H14.4936C14.6044 46.571 14.7578 46.3537 14.9538 46.0895C15.1541 45.821 15.4396 45.5824 15.8104 45.3736C16.1854 45.1605 16.6925 45.054 17.3317 45.054C18.1584 45.054 18.8871 45.2607 19.5178 45.674C20.1484 46.0874 20.6406 46.6733 20.9943 47.4318C21.348 48.1903 21.5249 49.0852 21.5249 50.1165C21.5249 51.1562 21.348 52.0575 20.9943 52.8203C20.6406 53.5788 20.1506 54.1669 19.5241 54.5845C18.8977 54.9979 18.1754 55.2045 17.3572 55.2045C16.7266 55.2045 16.2216 55.1001 15.8423 54.8913C15.4631 54.6783 15.1712 54.4375 14.9666 54.169C14.7621 53.8963 14.6044 53.6705 14.4936 53.4915H14.3658V58.6818H12.8572ZM14.3402 50.0909C14.3402 50.8324 14.4489 51.4865 14.6662 52.0533C14.8835 52.6158 15.201 53.0568 15.6186 53.3764C16.0362 53.6918 16.5476 53.8494 17.1527 53.8494C17.7834 53.8494 18.3097 53.6832 18.7315 53.3509C19.1577 53.0142 19.4773 52.5625 19.6903 51.9957C19.9077 51.4247 20.0163 50.7898 20.0163 50.0909C20.0163 49.4006 19.9098 48.7784 19.6967 48.2244C19.4879 47.6662 19.1705 47.2251 18.7443 46.9013C18.3224 46.5732 17.7919 46.4091 17.1527 46.4091C16.5391 46.4091 16.0234 46.5646 15.6058 46.8757C15.1882 47.1825 14.8729 47.6129 14.6598 48.1669C14.4467 48.7166 14.3402 49.358 14.3402 50.0909ZM27.8146 55.2045C26.9283 55.2045 26.1506 54.9936 25.4815 54.5717C24.8168 54.1499 24.2969 53.5597 23.9219 52.8011C23.5511 52.0426 23.3658 51.1562 23.3658 50.142C23.3658 49.1193 23.5511 48.2266 23.9219 47.4638C24.2969 46.701 24.8168 46.1087 25.4815 45.6868C26.1506 45.2649 26.9283 45.054 27.8146 45.054C28.701 45.054 29.4766 45.2649 30.1413 45.6868C30.8104 46.1087 31.3303 46.701 31.701 47.4638C32.076 48.2266 32.2635 49.1193 32.2635 50.142C32.2635 51.1562 32.076 52.0426 31.701 52.8011C31.3303 53.5597 30.8104 54.1499 30.1413 54.5717C29.4766 54.9936 28.701 55.2045 27.8146 55.2045ZM27.8146 53.8494C28.4879 53.8494 29.0419 53.6768 29.4766 53.3317C29.9112 52.9865 30.233 52.5327 30.4418 51.9702C30.6506 51.4077 30.755 50.7983 30.755 50.142C30.755 49.4858 30.6506 48.8743 30.4418 48.3075C30.233 47.7408 29.9112 47.2827 29.4766 46.9332C29.0419 46.5838 28.4879 46.4091 27.8146 46.4091C27.1413 46.4091 26.5874 46.5838 26.1527 46.9332C25.718 47.2827 25.3963 47.7408 25.1875 48.3075C24.9787 48.8743 24.8743 49.4858 24.8743 50.142C24.8743 50.7983 24.9787 51.4077 25.1875 51.9702C25.3963 52.5327 25.718 52.9865 26.1527 53.3317C26.5874 53.6768 27.1413 53.8494 27.8146 53.8494ZM36.0748 52.7756L40.8049 45.1818H42.5435V55H41.035V47.4062L36.3304 55H34.5662V45.1818H36.0748V52.7756ZM44.6928 52.4943H46.3036C46.3377 52.9375 46.538 53.2741 46.9045 53.5043C47.2752 53.7344 47.7567 53.8494 48.3491 53.8494C48.9542 53.8494 49.4719 53.7259 49.9023 53.4787C50.3327 53.2273 50.5479 52.8224 50.5479 52.2642C50.5479 51.9361 50.467 51.6506 50.305 51.4077C50.1431 51.1605 49.9151 50.9687 49.6211 50.8324C49.3271 50.696 48.9798 50.6278 48.5792 50.6278H46.8917V49.2727H48.5792C49.18 49.2727 49.6232 49.1364 49.9087 48.8636C50.1985 48.5909 50.3434 48.25 50.3434 47.8409C50.3434 47.402 50.1879 47.0504 49.8768 46.7862C49.5657 46.5178 49.1246 46.3835 48.5536 46.3835C47.9783 46.3835 47.4989 46.5135 47.1154 46.7734C46.7319 47.0291 46.5295 47.3594 46.5082 47.7642H44.9229C44.94 47.2358 45.1019 46.7692 45.4087 46.3643C45.7156 45.9553 46.1332 45.6357 46.6616 45.4055C47.19 45.1712 47.7951 45.054 48.4769 45.054C49.1673 45.054 49.766 45.1754 50.2731 45.4183C50.7844 45.657 51.1786 45.983 51.4556 46.3963C51.7369 46.8054 51.8775 47.2699 51.8775 47.7898C51.8775 48.3438 51.7219 48.7912 51.4109 49.1321C51.0998 49.473 50.7099 49.7159 50.2411 49.8608V49.9631C50.6119 49.9886 50.9336 50.108 51.2063 50.321C51.4833 50.5298 51.6985 50.8047 51.8519 51.1456C52.0053 51.4822 52.082 51.8551 52.082 52.2642C52.082 52.8608 51.9222 53.3807 51.6026 53.8239C51.283 54.2628 50.8441 54.6037 50.2859 54.8466C49.7276 55.0852 49.0906 55.2045 48.3746 55.2045C47.68 55.2045 47.0579 55.0916 46.5082 54.8658C45.9585 54.6357 45.5217 54.3182 45.1978 53.9134C44.8782 53.5043 44.7099 53.0312 44.6928 52.4943ZM54.201 55V45.1818H58.2152C59.272 45.1818 60.1115 45.4205 60.7337 45.8977C61.3558 46.375 61.6669 47.0057 61.6669 47.7898C61.6669 48.3864 61.4901 48.8487 61.1364 49.1768C60.7827 49.5007 60.3288 49.7202 59.7749 49.8352C60.1371 49.8864 60.4886 50.0142 60.8295 50.2188C61.1747 50.4233 61.4602 50.7045 61.6861 51.0625C61.9119 51.4162 62.0249 51.8509 62.0249 52.3665C62.0249 52.8693 61.897 53.3189 61.6413 53.7152C61.3857 54.1115 61.0192 54.4247 60.5419 54.6548C60.0646 54.8849 59.4936 55 58.8288 55H54.201ZM55.6328 53.6193H58.8288C59.3487 53.6193 59.7557 53.4957 60.0497 53.2486C60.3438 53.0014 60.4908 52.6648 60.4908 52.2386C60.4908 51.7315 60.3438 51.3331 60.0497 51.0433C59.7557 50.7493 59.3487 50.6023 58.8288 50.6023H55.6328V53.6193ZM55.6328 49.2983H58.2152C58.62 49.2983 58.9673 49.2429 59.2571 49.1321C59.5469 49.017 59.7685 48.8551 59.9219 48.6463C60.0795 48.4332 60.1584 48.1818 60.1584 47.892C60.1584 47.4787 59.9858 47.1548 59.6406 46.9205C59.2955 46.6818 58.8203 46.5625 58.2152 46.5625H55.6328V49.2983ZM68.2971 55.2045C67.4107 55.2045 66.633 54.9936 65.964 54.5717C65.2992 54.1499 64.7793 53.5597 64.4043 52.8011C64.0336 52.0426 63.8482 51.1562 63.8482 50.142C63.8482 49.1193 64.0336 48.2266 64.4043 47.4638C64.7793 46.701 65.2992 46.1087 65.964 45.6868C66.633 45.2649 67.4107 45.054 68.2971 45.054C69.1834 45.054 69.959 45.2649 70.6238 45.6868C71.2928 46.1087 71.8127 46.701 72.1834 47.4638C72.5584 48.2266 72.7459 49.1193 72.7459 50.142C72.7459 51.1562 72.5584 52.0426 72.1834 52.8011C71.8127 53.5597 71.2928 54.1499 70.6238 54.5717C69.959 54.9936 69.1834 55.2045 68.2971 55.2045ZM68.2971 53.8494C68.9703 53.8494 69.5243 53.6768 69.959 53.3317C70.3936 52.9865 70.7154 52.5327 70.9242 51.9702C71.133 51.4077 71.2374 50.7983 71.2374 50.142C71.2374 49.4858 71.133 48.8743 70.9242 48.3075C70.7154 47.7408 70.3936 47.2827 69.959 46.9332C69.5243 46.5838 68.9703 46.4091 68.2971 46.4091C67.6238 46.4091 67.0698 46.5838 66.6351 46.9332C66.2005 47.2827 65.8787 47.7408 65.6699 48.3075C65.4611 48.8743 65.3567 49.4858 65.3567 50.142C65.3567 50.7983 65.4611 51.4077 65.6699 51.9702C65.8787 52.5327 66.2005 52.9865 66.6351 53.3317C67.0698 53.6768 67.6238 53.8494 68.2971 53.8494ZM74.0004 57.8125V53.5938H74.8185C75.0188 53.3849 75.1914 53.1591 75.3363 52.9162C75.4812 52.6733 75.6069 52.3857 75.7134 52.0533C75.8242 51.7166 75.918 51.3075 75.9947 50.826C76.0714 50.3402 76.1396 49.7543 76.1992 49.0682L76.5316 45.1818H82.7702V53.5938H84.2788V57.8125H82.7702V55H75.5089V57.8125H74.0004ZM76.5316 53.5938H81.2617V46.5881H77.9379L77.6822 49.0682C77.5756 50.0952 77.4435 50.9922 77.2859 51.7592C77.1282 52.5263 76.8768 53.1378 76.5316 53.5938ZM90.2697 55.2045C89.3493 55.2045 88.5566 54.9872 87.8919 54.5526C87.2271 54.1179 86.7157 53.5192 86.3578 52.7564C85.9998 51.9936 85.8208 51.1222 85.8208 50.142C85.8208 49.1449 86.0041 48.2649 86.3706 47.5021C86.7413 46.7351 87.2569 46.1364 87.9174 45.706C88.5822 45.2713 89.3578 45.054 90.2441 45.054C90.9345 45.054 91.5566 45.1818 92.1106 45.4375C92.6646 45.6932 93.1184 46.0511 93.4721 46.5114C93.8258 46.9716 94.0453 47.5085 94.1305 48.1222H92.622C92.5069 47.6747 92.2512 47.2784 91.8549 46.9332C91.4629 46.5838 90.9345 46.4091 90.2697 46.4091C89.6816 46.4091 89.166 46.5625 88.7228 46.8693C88.2839 47.1719 87.9409 47.6001 87.6937 48.1541C87.4508 48.7038 87.3294 49.3494 87.3294 50.0909C87.3294 50.8494 87.4487 51.5099 87.6873 52.0724C87.9302 52.6349 88.2711 53.0717 88.71 53.3828C89.1532 53.6939 89.6731 53.8494 90.2697 53.8494C90.6618 53.8494 91.0176 53.7812 91.3372 53.6449C91.6568 53.5085 91.9274 53.3125 92.149 53.0568C92.3706 52.8011 92.5282 52.4943 92.622 52.1364H94.1305C94.0453 52.7159 93.8343 53.2379 93.4977 53.7024C93.1653 54.1626 92.7243 54.5291 92.1745 54.8018C91.6291 55.0703 90.9941 55.2045 90.2697 55.2045ZM95.5623 46.5881V45.1818H103.54V46.5881H100.318V55H98.8095V46.5881H95.5623ZM105.74 55V45.1818H109.754C110.811 45.1818 111.651 45.4205 112.273 45.8977C112.895 46.375 113.206 47.0057 113.206 47.7898C113.206 48.3864 113.029 48.8487 112.675 49.1768C112.322 49.5007 111.868 49.7202 111.314 49.8352C111.676 49.8864 112.028 50.0142 112.369 50.2188C112.714 50.4233 112.999 50.7045 113.225 51.0625C113.451 51.4162 113.564 51.8509 113.564 52.3665C113.564 52.8693 113.436 53.3189 113.18 53.7152C112.925 54.1115 112.558 54.4247 112.081 54.6548C111.604 54.8849 111.033 55 110.368 55H105.74ZM107.172 53.6193H110.368C110.888 53.6193 111.295 53.4957 111.589 53.2486C111.883 53.0014 112.03 52.6648 112.03 52.2386C112.03 51.7315 111.883 51.3331 111.589 51.0433C111.295 50.7493 110.888 50.6023 110.368 50.6023H107.172V53.6193ZM107.172 49.2983H109.754C110.159 49.2983 110.506 49.2429 110.796 49.1321C111.086 49.017 111.308 48.8551 111.461 48.6463C111.619 48.4332 111.697 48.1818 111.697 47.892C111.697 47.4787 111.525 47.1548 111.18 46.9205C110.835 46.6818 110.359 46.5625 109.754 46.5625H107.172V49.2983ZM119.964 55.2045C119.018 55.2045 118.202 54.9957 117.516 54.5781C116.834 54.1562 116.308 53.5682 115.937 52.8139C115.57 52.0554 115.387 51.1733 115.387 50.1676C115.387 49.1619 115.57 48.2756 115.937 47.5085C116.308 46.7372 116.823 46.1364 117.484 45.706C118.149 45.2713 118.924 45.054 119.811 45.054C120.322 45.054 120.827 45.1392 121.325 45.3097C121.824 45.4801 122.278 45.7571 122.687 46.1406C123.096 46.5199 123.422 47.0227 123.665 47.6491C123.908 48.2756 124.029 49.0469 124.029 49.9631V50.6023H116.461V49.2983H122.495C122.495 48.7443 122.384 48.25 122.163 47.8153C121.945 47.3807 121.634 47.0376 121.23 46.7862C120.829 46.5348 120.356 46.4091 119.811 46.4091C119.21 46.4091 118.69 46.5582 118.251 46.8565C117.816 47.1506 117.482 47.5341 117.247 48.0071C117.013 48.4801 116.896 48.9872 116.896 49.5284V50.3977C116.896 51.1392 117.024 51.7678 117.279 52.2834C117.539 52.7947 117.899 53.1847 118.36 53.4531C118.82 53.7173 119.355 53.8494 119.964 53.8494C120.36 53.8494 120.718 53.794 121.038 53.6832C121.362 53.5682 121.641 53.3977 121.875 53.1719C122.11 52.9418 122.291 52.6562 122.419 52.3153L123.876 52.7244C123.722 53.2188 123.465 53.6534 123.102 54.0284C122.74 54.3991 122.293 54.6889 121.76 54.8977C121.227 55.1023 120.629 55.2045 119.964 55.2045ZM132.895 49.4006V50.8068H127.475V49.4006H132.895ZM127.833 45.1818V55H126.324V45.1818H127.833ZM134.046 45.1818V55H132.537V45.1818H134.046ZM143.372 49.4006V50.8068H137.951V49.4006H143.372ZM138.309 45.1818V55H136.801V45.1818H138.309ZM144.522 45.1818V55H143.014V45.1818H144.522ZM150.166 55.2301C149.544 55.2301 148.98 55.1129 148.472 54.8786C147.965 54.6399 147.563 54.2969 147.264 53.8494C146.966 53.3977 146.817 52.8523 146.817 52.2131C146.817 51.6506 146.928 51.1946 147.149 50.8452C147.371 50.4915 147.667 50.2145 148.038 50.0142C148.409 49.8139 148.818 49.6648 149.265 49.5668C149.717 49.4645 150.171 49.3835 150.627 49.3239C151.223 49.2472 151.707 49.1896 152.078 49.1513C152.453 49.1087 152.725 49.0384 152.896 48.9403C153.07 48.8423 153.158 48.6719 153.158 48.429V48.3778C153.158 47.7472 152.985 47.2571 152.64 46.9077C152.299 46.5582 151.781 46.3835 151.087 46.3835C150.367 46.3835 149.802 46.5412 149.393 46.8565C148.984 47.1719 148.696 47.5085 148.53 47.8665L147.098 47.3551C147.354 46.7585 147.695 46.294 148.121 45.9616C148.551 45.625 149.02 45.3906 149.527 45.2585C150.039 45.1222 150.541 45.054 151.036 45.054C151.351 45.054 151.713 45.0923 152.122 45.169C152.536 45.2415 152.934 45.3928 153.318 45.6229C153.705 45.853 154.027 46.2003 154.283 46.6648C154.539 47.1293 154.666 47.7514 154.666 48.5312V55H153.158V53.6705H153.081C152.979 53.8835 152.808 54.1115 152.57 54.3544C152.331 54.5973 152.014 54.804 151.617 54.9744C151.221 55.1449 150.737 55.2301 150.166 55.2301ZM150.396 53.875C150.993 53.875 151.496 53.7578 151.905 53.5234C152.318 53.2891 152.629 52.9865 152.838 52.6158C153.051 52.245 153.158 51.8551 153.158 51.446V50.0653C153.094 50.142 152.953 50.2124 152.736 50.2763C152.523 50.3359 152.276 50.3892 151.994 50.4361C151.718 50.4787 151.447 50.517 151.183 50.5511C150.923 50.581 150.712 50.6065 150.55 50.6278C150.158 50.679 149.791 50.7621 149.45 50.8771C149.114 50.9879 148.841 51.1562 148.632 51.3821C148.428 51.6037 148.325 51.9062 148.325 52.2898C148.325 52.8139 148.519 53.2102 148.907 53.4787C149.299 53.7429 149.796 53.875 150.396 53.875ZM163.326 55V46.5625H160.718C160.13 46.5625 159.668 46.6989 159.331 46.9716C158.994 47.2443 158.826 47.6193 158.826 48.0966C158.826 48.5653 158.977 48.9339 159.28 49.2024C159.587 49.4709 160.006 49.6051 160.539 49.6051H163.71V51.0114H160.539C159.874 51.0114 159.301 50.8942 158.82 50.6598C158.338 50.4254 157.967 50.0909 157.707 49.6562C157.447 49.2173 157.317 48.6974 157.317 48.0966C157.317 47.4915 157.454 46.9716 157.727 46.5369C157.999 46.1023 158.389 45.7678 158.896 45.5334C159.408 45.299 160.015 45.1818 160.718 45.1818H164.758V55H163.326ZM156.781 55L159.567 50.1165H161.204L158.417 55H156.781ZM176.578 58.3494V41.9091H178.087V58.3494H176.578ZM176.578 55.2045C175.914 55.2045 175.308 55.0852 174.763 54.8466C174.218 54.6037 173.749 54.2607 173.357 53.8175C172.965 53.37 172.662 52.8352 172.449 52.2131C172.236 51.5909 172.129 50.9006 172.129 50.142C172.129 49.375 172.236 48.6804 172.449 48.0582C172.662 47.4318 172.965 46.8949 173.357 46.4474C173.749 46 174.218 45.657 174.763 45.4183C175.308 45.1754 175.914 45.054 176.578 45.054H177.039V55.2045H176.578ZM176.578 53.8494H176.834V46.4091H176.578C176.075 46.4091 175.639 46.5114 175.268 46.7159C174.897 46.9162 174.59 47.1911 174.347 47.5405C174.109 47.8857 173.93 48.282 173.811 48.7294C173.695 49.1768 173.638 49.6477 173.638 50.142C173.638 50.7983 173.742 51.4077 173.951 51.9702C174.16 52.5327 174.482 52.9865 174.916 53.3317C175.351 53.6768 175.905 53.8494 176.578 53.8494ZM178.087 55.2045H177.627V45.054H178.087C178.752 45.054 179.357 45.1754 179.902 45.4183C180.448 45.657 180.916 46 181.308 46.4474C181.7 46.8949 182.003 47.4318 182.216 48.0582C182.429 48.6804 182.536 49.375 182.536 50.142C182.536 50.9006 182.429 51.5909 182.216 52.2131C182.003 52.8352 181.7 53.37 181.308 53.8175C180.916 54.2607 180.448 54.6037 179.902 54.8466C179.357 55.0852 178.752 55.2045 178.087 55.2045ZM178.087 53.8494C178.594 53.8494 179.031 53.7514 179.397 53.5554C179.768 53.3551 180.073 53.0824 180.311 52.7372C180.554 52.3878 180.733 51.9915 180.848 51.5483C180.968 51.1009 181.027 50.6321 181.027 50.142C181.027 49.4858 180.923 48.8743 180.714 48.3075C180.505 47.7408 180.183 47.2827 179.749 46.9332C179.314 46.5838 178.76 46.4091 178.087 46.4091H177.831V53.8494H178.087ZM186.35 52.7756L191.08 45.1818H192.819V55H191.31V47.4062L186.606 55H184.842V45.1818H186.35V52.7756ZM195.582 58.6818V45.1818H197.039V46.7415H197.218C197.329 46.571 197.482 46.3537 197.678 46.0895C197.879 45.821 198.164 45.5824 198.535 45.3736C198.91 45.1605 199.417 45.054 200.056 45.054C200.883 45.054 201.612 45.2607 202.242 45.674C202.873 46.0874 203.365 46.6733 203.719 47.4318C204.073 48.1903 204.249 49.0852 204.249 50.1165C204.249 51.1562 204.073 52.0575 203.719 52.8203C203.365 53.5788 202.875 54.1669 202.249 54.5845C201.622 54.9979 200.9 55.2045 200.082 55.2045C199.451 55.2045 198.946 55.1001 198.567 54.8913C198.188 54.6783 197.896 54.4375 197.691 54.169C197.487 53.8963 197.329 53.6705 197.218 53.4915H197.09V58.6818H195.582ZM197.065 50.0909C197.065 50.8324 197.173 51.4865 197.391 52.0533C197.608 52.6158 197.926 53.0568 198.343 53.3764C198.761 53.6918 199.272 53.8494 199.877 53.8494C200.508 53.8494 201.034 53.6832 201.456 53.3509C201.882 53.0142 202.202 52.5625 202.415 51.9957C202.632 51.4247 202.741 50.7898 202.741 50.0909C202.741 49.4006 202.634 48.7784 202.421 48.2244C202.213 47.6662 201.895 47.2251 201.469 46.9013C201.047 46.5732 200.517 46.4091 199.877 46.4091C199.264 46.4091 198.748 46.5646 198.33 46.8757C197.913 47.1825 197.597 47.6129 197.384 48.1669C197.171 48.7166 197.065 49.358 197.065 50.0909ZM211.92 52.9545L215.346 45.1818H216.778L212.534 55H211.306L207.139 45.1818H208.545L211.92 52.9545ZM208.059 45.1818V55H206.551V45.1818H208.059ZM215.781 55V45.1818H217.289V55H215.781ZM222.94 55.2301C222.318 55.2301 221.753 55.1129 221.246 54.8786C220.739 54.6399 220.336 54.2969 220.038 53.8494C219.74 53.3977 219.59 52.8523 219.59 52.2131C219.59 51.6506 219.701 51.1946 219.923 50.8452C220.144 50.4915 220.441 50.2145 220.811 50.0142C221.182 49.8139 221.591 49.6648 222.039 49.5668C222.49 49.4645 222.944 49.3835 223.4 49.3239C223.997 49.2472 224.48 49.1896 224.851 49.1513C225.226 49.1087 225.499 49.0384 225.669 48.9403C225.844 48.8423 225.931 48.6719 225.931 48.429V48.3778C225.931 47.7472 225.759 47.2571 225.414 46.9077C225.073 46.5582 224.555 46.3835 223.86 46.3835C223.14 46.3835 222.575 46.5412 222.166 46.8565C221.757 47.1719 221.47 47.5085 221.303 47.8665L219.872 47.3551C220.127 46.7585 220.468 46.294 220.894 45.9616C221.325 45.625 221.794 45.3906 222.301 45.2585C222.812 45.1222 223.315 45.054 223.809 45.054C224.124 45.054 224.487 45.0923 224.896 45.169C225.309 45.2415 225.708 45.3928 226.091 45.6229C226.479 45.853 226.801 46.2003 227.056 46.6648C227.312 47.1293 227.44 47.7514 227.44 48.5312V55H225.931V53.6705H225.855C225.752 53.8835 225.582 54.1115 225.343 54.3544C225.105 54.5973 224.787 54.804 224.391 54.9744C223.994 55.1449 223.511 55.2301 222.94 55.2301ZM223.17 53.875C223.767 53.875 224.269 53.7578 224.678 53.5234C225.092 53.2891 225.403 52.9865 225.612 52.6158C225.825 52.245 225.931 51.8551 225.931 51.446V50.0653C225.867 50.142 225.727 50.2124 225.509 50.2763C225.296 50.3359 225.049 50.3892 224.768 50.4361C224.491 50.4787 224.22 50.517 223.956 50.5511C223.696 50.581 223.485 50.6065 223.323 50.6278C222.931 50.679 222.565 50.7621 222.224 50.8771C221.887 50.9879 221.615 51.1562 221.406 51.3821C221.201 51.6037 221.099 51.9062 221.099 52.2898C221.099 52.8139 221.293 53.2102 221.681 53.4787C222.073 53.7429 222.569 53.875 223.17 53.875Z" fill="#FF0000"/>
</g>
</g>
<defs>
<clipPath id="clip0_48_107">
<rect width="230" height="59" fill="white"/>
</clipPath>
</defs>
</svg>
